HIERARCHY
ROOT Hips
{
	OFFSET	0.00	0.00	0.00
	CHANNELS 6 Xposition Yposition Zposition Zrotation Xrotation Yrotation
	JOINT LeftUpLeg
	{
		OFFSET	 0.126116	-0.014019	-0.065224
		CHANNELS 3 Zrotation Xrotation Yrotation
		JOINT LeftLeg
		{
			OFFSET	 0.000000	 0.000000	 0.569914
			CHANNELS 3 Zrotation Xrotation Yrotation
			JOINT LeftFoot
			{
				OFFSET	 0.000000	 0.000000	 0.544423
				CHANNELS 3 Zrotation Xrotation Yrotation
				JOINT LeftToeBase
				{
					OFFSET	 0.000000	 0.000000	 0.207117
					CHANNELS 3 Zrotation Xrotation Yrotation
					End Site
					{
						OFFSET	 0.000000	 0.000000	 0.207117
					}
				}
			}
		}
	}
	JOINT RightUpLeg
	{
		OFFSET	-0.124023	-0.008373	-0.065224
		CHANNELS 3 Zrotation Xrotation Yrotation
		JOINT RightLeg
		{
			OFFSET	 0.000000	 0.000000	 0.570047
			CHANNELS 3 Zrotation Xrotation Yrotation
			JOINT RightFoot
			{
				OFFSET	 0.000000	 0.000000	 0.544354
				CHANNELS 3 Zrotation Xrotation Yrotation
				JOINT RightToeBase
				{
					OFFSET	 0.000000	 0.000000	 0.207540
					CHANNELS 3 Zrotation Xrotation Yrotation
					End Site
					{
						OFFSET	 0.000000	 0.000000	 0.207540
					}
				}
			}
		}
	}
	JOINT Spine
	{
		OFFSET	 0.000184	-0.007763	 0.117403
		CHANNELS 3 Zrotation Xrotation Yrotation
		JOINT Spine1
		{
			OFFSET	 0.000000	 0.000000	 0.137269
			CHANNELS 3 Zrotation Xrotation Yrotation
			JOINT Spine2
			{
				OFFSET	 0.000000	 0.000000	 0.156879
				CHANNELS 3 Zrotation Xrotation Yrotation
				JOINT LeftShoulder
				{
					OFFSET	 0.080501	-0.002496	 0.160144
					CHANNELS 3 Zrotation Xrotation Yrotation
					JOINT LeftArm
					{
						OFFSET	 0.000000	 0.000000	 0.164363
						CHANNELS 3 Zrotation Xrotation Yrotation
						JOINT LeftForeArm
						{
							OFFSET	 0.000000	 0.000000	 0.364576
							CHANNELS 3 Zrotation Xrotation Yrotation
							JOINT LeftHand
							{
								OFFSET	 0.000000	 0.000000	 0.360812
								CHANNELS 3 Zrotation Xrotation Yrotation
								JOINT LeftHandIndex1
								{
									OFFSET	 0.000000	 0.000000	 0.086006
									CHANNELS 3 Zrotation Xrotation Yrotation
									JOINT LeftHandIndex2
									{
										OFFSET	 0.000000	 0.000000	 0.047236
										CHANNELS 3 Zrotation Xrotation Yrotation
										JOINT LeftHandIndex3
										{
											OFFSET	-0.004284	-0.000551	 0.038166
											CHANNELS 3 Zrotation Xrotation Yrotation
											End Site
											{
												OFFSET	-0.004284	-0.000551	 0.038166
											}
										}
									}
								}
							}
						}
					}
				}
				JOINT Neck
				{
					OFFSET	 0.000000	 0.000000	 0.176489
					CHANNELS 3 Zrotation Xrotation Yrotation
					JOINT Head
					{
						OFFSET	 0.000000	-0.001747	 0.077940
						CHANNELS 3 Zrotation Xrotation Yrotation
						End Site
						{
							OFFSET	 0.000000	-0.001747	 0.077940
						}
					}
				}
				JOINT RightShoulder
				{
					OFFSET	-0.080363	 0.000306	 0.159706
					CHANNELS 3 Zrotation Xrotation Yrotation
					JOINT RightArm
					{
						OFFSET	 0.000000	 0.000000	 0.164196
						CHANNELS 3 Zrotation Xrotation Yrotation
						JOINT RightForeArm
						{
							OFFSET	 0.000000	 0.000000	 0.365611
							CHANNELS 3 Zrotation Xrotation Yrotation
							JOINT RightHand
							{
								OFFSET	 0.000000	 0.000000	 0.360648
								CHANNELS 3 Zrotation Xrotation Yrotation
								JOINT RightHandIndex1
								{
									OFFSET	 0.000000	 0.000000	 0.069977
									CHANNELS 3 Zrotation Xrotation Yrotation
									JOINT RightHandIndex2
									{
										OFFSET	 0.000000	 0.000000	 0.052305
										CHANNELS 3 Zrotation Xrotation Yrotation
										JOINT RightHandIndex3
										{
											OFFSET	 0.009002	-0.000782	 0.042196
											CHANNELS 3 Zrotation Xrotation Yrotation
											End Site
											{
												OFFSET	 0.009002	-0.000782	 0.042196
											}
										}
									}
								}
							}
						}
					}
				}
			}
		}
	}
}
MOTION
Frames:    5
Frame Time: 0.03333334
 0.000295	 0.019714	 1.271228	-0.002959	 0.003735	 0.173976	-2.013028	-1.711178	 177.938800	 1.472510	-12.017760	-0.701700	-6.927979	 71.221500	 0.779373	-2.385833	 28.452760	 0.000004	 1.848876	-1.781450	-178.219500	-1.463658	-11.644080	 0.666772	 6.603343	 70.877680	-0.631652	 2.384658	 28.388730	 0.000004	-4.942302	 2.667189	 0.293644	-2.158424	 3.857803	-0.796784	 6.533750	-4.744931	 1.422663	-91.776180	 78.527490	 180.000000	 58.772560	 40.274560	-60.655550	-8.470480	 0.193632	-0.623959	-30.571180	-12.240430	-4.504528	-2.635965	 4.993658	 6.788941	-5.165319	 0.784187	 3.516649	-5.225038	 0.466231	 0.424329	-0.000002	-3.783157	-0.089647	 6.350737	 4.515631	-0.250657	 89.782070	 78.203870	-180.000000	-64.114270	 41.960940	 57.005550	 8.101112	 3.605000	 8.272674	 30.963400	-12.978170	 9.188630	 6.112037	 4.509576	-0.364401	 4.968462	 1.518543	-9.347576	 5.168945	 0.703820	 2.021906
 0.000297	 0.019712	 1.271290	-0.002775	 0.004068	 0.174398	-1.941806	-1.712068	 177.933000	 1.472579	-12.012250	-0.701369	-6.926252	 71.209940	 0.777932	-2.385833	 28.452760	 0.000004	 1.777485	-1.781011	-178.214700	-1.463748	-11.636650	 0.666334	 6.600887	 70.865380	-0.629078	 2.384658	 28.388730	 0.000004	-5.273853	 2.630200	 0.287685	-2.151951	 3.985888	-0.785004	 6.513415	-4.911082	 1.429233	-91.776120	 78.527470	 180.000000	 58.807380	 40.284900	-60.602400	-8.628676	 0.195808	-0.701668	-30.728190	-12.547950	-4.539957	-2.635965	 4.993658	 6.788941	-5.165319	 0.784187	 3.516649	-5.225038	 0.466231	 0.424329	-0.000002	-3.783157	-0.089647	 6.324232	 4.440787	-0.245468	 89.782190	 78.203900	 179.999900	-63.987050	 41.890770	 57.244750	 8.155858	 3.551905	 8.210669	 31.092950	-13.324410	 9.199641	 6.112037	 4.509576	-0.364401	 4.968462	 1.518543	-9.347576	 5.168945	 0.703820	 2.021906
 0.000298	 0.019710	 1.271417	-0.002410	 0.004711	 0.174368	-1.806347	-1.712533	 177.922600	 1.472742	-11.999110	-0.700578	-6.922210	 71.186590	 0.774535	-2.385833	 28.452760	 0.000004	 1.641992	-1.780800	-178.205000	-1.463900	-11.623830	 0.665580	 6.596489	 70.842650	-0.624379	 2.384658	 28.388730	 0.000004	-5.891189	 2.560370	 0.275841	-2.131214	 4.227649	-0.759496	 6.448985	-5.226552	 1.435559	-91.776230	 78.527490	-180.000000	 58.870880	 40.304280	-60.497360	-8.930089	 0.200892	-0.849834	-31.029500	-13.134420	-4.612201	-2.635965	 4.993658	 6.788941	-5.165319	 0.784187	 3.516649	-5.225038	 0.466231	 0.424329	-0.000002	-3.783157	-0.089647	 6.248844	 4.302415	-0.234973	 89.782130	 78.203900	 180.000000	-63.722960	 41.749360	 57.932740	 8.275811	 3.327544	 7.814526	 31.344170	-13.988330	 9.224519	 6.112037	 4.509576	-0.364401	 4.968462	 1.518543	-9.347576	 5.168945	 0.703820	 2.021906
 0.000296	 0.019708	 1.271551	-0.002016	 0.005359	 0.173245	-1.670852	-1.711721	 177.913000	 1.472942	-11.983180	-0.699621	-6.917538	 71.161800	 0.770537	-2.385833	 28.452760	 0.000004	 1.506715	-1.781504	-178.194400	-1.464031	-11.612940	 0.664938	 6.592465	 70.820940	-0.619933	 2.384658	 28.388730	 0.000004	-6.496379	 2.491358	 0.263481	-2.099378	 4.466578	-0.730418	 6.350756	-5.540616	 1.433611	-91.776140	 78.527430	 180.000000	 58.929280	 40.323310	-60.384890	-9.235715	 0.208126	-1.001469	-31.336940	-13.726450	-4.691601	-2.635965	 4.993658	 6.788941	-5.165319	 0.784187	 3.516649	-5.225038	 0.466231	 0.424329	-0.000002	-3.783157	-0.089647	 6.140923	 4.169436	-0.223763	 89.782100	 78.203900	 180.000000	-63.481560	 41.405260	 58.807270	 8.257701	 3.063080	 7.377283	 31.745970	-14.821290	 9.179179	 6.112037	 4.509576	-0.364401	 4.968462	 1.518543	-9.347576	 5.168945	 0.703820	 2.021906
 0.000291	 0.019707	 1.271694	-0.001607	 0.006009	 0.170931	-1.531955	-1.709359	 177.904300	 1.473184	-11.963630	-0.698446	-6.911906	 71.134810	 0.765698	-2.385833	 28.452760	 0.000004	 1.368360	-1.783140	-178.182600	-1.464141	-11.603680	 0.664392	 6.588624	 70.799650	-0.615607	 2.384658	 28.388730	 0.000004	-7.105368	 2.421914	 0.250483	-2.055279	 4.707015	-0.697269	 6.215313	-5.859102	 1.422632	-91.776050	 78.527420	 179.999900	 58.983870	 40.340660	-60.262250	-9.554034	 0.217736	-1.160520	-31.659080	-14.338650	-4.780812	-2.635965	 4.993658	 6.788941	-5.165319	 0.784187	 3.516649	-5.225038	 0.466231	 0.424329	-0.000002	-3.783157	-0.089647	 5.997117	 4.039291	-0.211688	 89.782110	 78.203900	 180.000000	-63.030130	 40.973640	 59.480950	 8.219985	 3.000002	 7.393672	 32.162350	-15.682570	 9.142829	 6.112037	 4.509576	-0.364401	 4.968462	 1.518543	-9.347576	 5.168945	 0.703820	 2.021906
